# xmcd CD database file
#
# Track frame offsets:
#	150
#	14520
#	28086
#	41247
#	54819
#	67553
#	82042
#	95686
#	107667
#	119419
#	132478
#	146131
#	159017
#	169369
#	181955
#	194056
#	206372
#	218949
#	231316
#	243216
#	263158
#	274797
#
# Disc length: 3818 seconds
#
# Revision: 0
# Processed by: cddbd v1.5.2PL0 Copyright (c) Steve Scherf et al.
# Submitted via: CDex 1.51
#
DISCID=410ee816
DTITLE=Blues - Legends of the Blues Vol.1
DYEAR=2008
DGENRE=Blues
TTITLE0=Bessie Smith with Louis Armstrong - St. Louis Blues
TTITLE1=Blind Lemon Jefferson - Matchbox Blues
TTITLE2=Mississippi John Hurt - A'int No Tellin'
TTITLE3=Blind Willie Johnson - Lord I Just Can't Keep From Crying
TTITLE4=Bo Carter - Pigmeat Is What I Crave
TTITLE5=Blind Willie McTell as Blind Sammie - Southern Can Is Mine
TTITLE6=Lonnie Johnson -Low Down St. Louis Blues
TTITLE7=Charly Patton - Revenue Man  Blues
TTITLE8=Leroy Carr - Stormy Night Blues
TTITLE9=Josh White - I Believe I'll Make A Change
TTITLE10=Leadbelly - Fort Worth And Dallas Blues
TTITLE11=Peetie Wheatsraw - Sweet Home Blues
TTITLE12=Robert Johnson - Stop Breakin' Down Blues
TTITLE13=Blind Boy Fuller - Truckin' My Blues Away
TTITLE14=Big Bill Broonzy - Spreadin' Snakes Blues
TTITLE15=Memphis Minnie - Nothing Is Ramblin'
TTITLE16=Bukka White - Fixin' To Die Blues
TTITLE17=MuddyWaters - Hard Day Blues
TTITLE18=Big Joe Williams - Don't You Leave Me Here
TTITLE19=Son House - Death Letter
TTITLE20=Robert johnson - Hell Hound On My Trail
TTITLE21=Leadbelly and The Golden Gate Jubilee Quartet - Rock Island Line
EXTD=YEAR: 2008
EXTT0=
EXTT1=
EXTT2=
EXTT3=
EXTT4=
EXTT5=
EXTT6=
EXTT7=
EXTT8=
EXTT9=
EXTT10=
EXTT11=
EXTT12=
EXTT13=
EXTT14=
EXTT15=
EXTT16=
EXTT17=
EXTT18=
EXTT19=
EXTT20=
EXTT21=
PLAYORDER=
